<svg xmlns="http://www.w3.org/2000/svg" width="49.005" height="49.005" viewBox="0 0 49.005 49.005">
  <path id="Icon_awesome-facebook-square" data-name="Icon awesome-facebook-square" d="M42.862,2.25H5.143A5.143,5.143,0,0,0,0,7.393V45.112a5.143,5.143,0,0,0,5.143,5.143H19.85V33.934H13.1V26.252H19.85V20.4c0-6.66,3.965-10.338,10.037-10.338a40.9,40.9,0,0,1,5.949.519v6.536H32.486c-3.3,0-4.331,2.049-4.331,4.15v4.988h7.37l-1.179,7.682H28.155V50.255H42.862a5.143,5.143,0,0,0,5.143-5.143V7.393A5.143,5.143,0,0,0,42.862,2.25Z" transform="translate(0.5 -1.75)" fill="#fff" stroke="#fff" stroke-width="1"/>
</svg>
