<svg xmlns="http://www.w3.org/2000/svg" width="50.703" height="50.703" viewBox="0 0 50.703 50.703">
  <g id="Icon_feather-instagram" data-name="Icon feather-instagram" transform="translate(1.5 1.5)">
    <path id="Path_4" data-name="Path 4" d="M14.926,3H38.777A11.926,11.926,0,0,1,50.7,14.926V38.777A11.926,11.926,0,0,1,38.777,50.7H14.926A11.926,11.926,0,0,1,3,38.777V14.926A11.926,11.926,0,0,1,14.926,3Z" transform="translate(-3 -3)" fill="none" stroke="#fff" stroke-linecap="round" stroke-linejoin="round" stroke-width="3"/>
    <path id="Path_5" data-name="Path 5" d="M31.043,20.076a9.541,9.541,0,1,1-8.038-8.038,9.541,9.541,0,0,1,8.038,8.038Z" transform="translate(2.349 2.273)" fill="none" stroke="#fff" stroke-linecap="round" stroke-linejoin="round" stroke-width="3"/>
    <path id="Path_6" data-name="Path 6" d="M26.25,9.75h0" transform="translate(10.72 0.983)" fill="none" stroke="#fff" stroke-linecap="round" stroke-linejoin="round" stroke-width="3"/>
  </g>
</svg>
