<svg xmlns="http://www.w3.org/2000/svg" width="26.994" height="26.999" viewBox="0 0 26.994 26.999">
  <g id="Icon_awesome-search" data-name="Icon awesome-search" transform="translate(0)">
    <path id="Icon_awesome-search-2" data-name="Icon awesome-search" d="M26.627,23.342,21.37,18.085a1.264,1.264,0,0,0-.9-.369h-.859a10.962,10.962,0,1,0-1.9,1.9v.859a1.264,1.264,0,0,0,.369.9l5.257,5.257a1.26,1.26,0,0,0,1.787,0l1.492-1.492a1.271,1.271,0,0,0,.005-1.793Zm-15.66-5.626a6.749,6.749,0,1,1,6.749-6.749A6.745,6.745,0,0,1,10.967,17.716Z" fill="#199d75"/>
  </g>
</svg>
