<svg xmlns="http://www.w3.org/2000/svg" width="48.826" height="48.826" viewBox="0 0 48.826 48.826">
  <path id="Icon_awesome-twitter-square" data-name="Icon awesome-twitter-square" d="M42.7,2.25H5.124A5.126,5.126,0,0,0,0,7.374V44.952a5.126,5.126,0,0,0,5.124,5.124H42.7a5.126,5.126,0,0,0,5.124-5.124V7.374A5.126,5.126,0,0,0,42.7,2.25ZM37.481,19.2c.021.3.021.608.021.907,0,9.256-7.046,19.92-19.92,19.92a19.828,19.828,0,0,1-10.75-3.139,14.75,14.75,0,0,0,1.687.085,14.038,14.038,0,0,0,8.69-2.989,7.011,7.011,0,0,1-6.544-4.857A7.546,7.546,0,0,0,13.825,29a7,7,0,0,1-5.6-6.875v-.085a7,7,0,0,0,3.16.886A6.987,6.987,0,0,1,8.263,17.1a6.914,6.914,0,0,1,.95-3.534,19.88,19.88,0,0,0,14.433,7.323,7.016,7.016,0,0,1,11.946-6.395,13.72,13.72,0,0,0,4.441-1.687,6.983,6.983,0,0,1-3.075,3.854,13.933,13.933,0,0,0,4.035-1.089A14.737,14.737,0,0,1,37.481,19.2Z" transform="translate(0.5 -1.75)" fill="#fff" stroke="#fff" stroke-width="1"/>
</svg>
