<svg xmlns="http://www.w3.org/2000/svg" width="60.529" height="45.656" viewBox="0 0 60.529 45.656">
  <path id="Icon_ionic-logo-youtube" data-name="Icon ionic-logo-youtube" d="M59.142,14.361c0-5.233-3.849-9.442-8.6-9.442C44.1,4.616,37.525,4.5,30.816,4.5H28.722c-6.7,0-13.28.116-19.722.419C4.256,4.919.407,9.151.407,14.384.117,18.524-.011,22.664,0,26.8q-.017,6.21.4,12.431c0,5.233,3.849,9.477,8.593,9.477,6.768.314,13.71.454,20.768.442q10.605.035,20.768-.442c4.756,0,8.605-4.244,8.605-9.477.279-4.151.407-8.291.4-12.442Q59.561,20.582,59.142,14.361ZM24.071,38.211V15.361L40.932,26.78Z" transform="translate(0.5 -4)" fill="#fff" stroke="#fff" stroke-width="1"/>
</svg>
